 <svg 
    xmlns="http://www.w3.org/2000/svg" 
    viewBox="0 0 24 24" 
    role="img" 
    aria-label="Spotify" 
    height="100" 
    width="100" 
    fill="#1DB954"
  >
    <title>Spotify</title>
    <path d="M12 0C5.373 0 0 5.373 0 12s5.373 12 12 12 
             12-5.373 12-12S18.627 0 12 0zm5.354 17.308a.75.75 
             0 01-1.033.28c-2.83-1.734-6.385-2.126-10.593-1.164a.75.75 
             0 11-.342-1.46c4.61-1.08 8.58-.627 11.777 1.292a.75.75 
             0 01.191 1.052zm1.468-3.252a.937.937 0 01-1.289.352c-3.245-1.988-8.194-2.564-12.01-1.4a.937.937 
             0 01-.527-1.796c4.27-1.255 9.778-.623 13.457 1.7a.937.937 
             0 01.369 1.144zm.126-3.36c-3.728-2.196-9.93-2.395-13.498-1.308a1.125 
             1.125 0 01-.654-2.148c4.158-1.265 10.073-1.032 14.332 1.464a1.125 
             1.125 0 11-1.18 1.992z"/>
  </svg>